<?xml version="1.0" standalone="no"?>
<!DOCTYPE svg PUBLIC "-//W3C//DTD SVG 20010904//EN"
 "http://www.w3.org/TR/2001/REC-SVG-20010904/DTD/svg10.dtd">
<svg version="1.0" xmlns="http://www.w3.org/2000/svg"
 width="400.000000pt" height="400.000000pt" viewBox="0 0 400.000000 400.000000"
 preserveAspectRatio="xMidYMid meet">
<metadata>
Created by potrace 1.11, written by Peter Selinger 2001-2013
</metadata>
<g transform="translate(0.000000,400.000000) scale(0.100000,-0.100000)"
fill="#000000" stroke="none">
<path d="M0 2000 l0 -2000 2000 0 2000 0 0 2000 0 2000 -2000 0 -2000 0 0
-2000z m2683 1316 c97 -29 151 -95 163 -199 l6 -54 -48 -7 c-321 -47 -339 -48
-716 -53 -235 -3 -427 -1 -510 6 -132 11 -430 50 -437 56 -2 2 2 34 9 70 15
82 52 134 117 166 65 32 212 38 863 33 406 -2 514 -6 553 -18z m-1427 -306
c415 -63 1108 -60 1492 5 63 11 96 12 139 4 73 -14 130 -37 137 -56 41 -105
-399 -183 -1039 -183 -392 0 -689 28 -870 81 -97 29 -135 53 -135 89 0 36 14
47 86 64 32 8 59 15 60 15 1 1 59 -8 130 -19z m1583 -366 l32 -7 -3 -876 c-3
-865 -3 -877 -24 -921 -30 -65 -69 -107 -128 -138 l-51 -27 -685 0 c-785 0
-753 -3 -835 79 -64 64 -85 125 -92 262 -4 80 -2 106 11 132 21 41 37 49 121
56 266 25 394 58 576 153 214 110 329 220 463 441 61 103 81 159 161 455 79
290 80 292 119 322 67 50 244 87 335 69z"/>
</g>
</svg>
